<mxfile host="app.diagrams.net" modified="2024-04-15T10:20:16.035Z" agent="Mozilla/5.0 (Windows NT 10.0; Win64; x64) AppleWebKit/537.36 (KHTML, like Gecko) Chrome/123.0.0.0 Safari/537.36" etag="9rj9WeCU70K2vKRqA4bI" version="24.2.1" type="device">
  <diagram name="Page-1" id="fb5mDEsY3noT0YhHmCuM">
    <mxGraphModel dx="1050" dy="1662" grid="1" gridSize="10" guides="1" tooltips="1" connect="1" arrows="1" fold="1" page="1" pageScale="1" pageWidth="850" pageHeight="1100" math="0" shadow="0">
      <root>
        <mxCell id="0" />
        <mxCell id="1" parent="0" />
        <mxCell id="7yAe7alW8cooY3Hqmog1-1" value="Processed Data" style="rounded=1;whiteSpace=wrap;html=1;" parent="1" vertex="1">
          <mxGeometry x="165" y="55" width="120" height="60" as="geometry" />
        </mxCell>
        <mxCell id="7yAe7alW8cooY3Hqmog1-2" value="" style="rounded=0;whiteSpace=wrap;html=1;fillColor=#f8cecc;strokeColor=#b85450;" parent="1" vertex="1">
          <mxGeometry x="140" y="190" width="20" height="20" as="geometry" />
        </mxCell>
        <mxCell id="7yAe7alW8cooY3Hqmog1-8" value="" style="rounded=0;whiteSpace=wrap;html=1;fillColor=#f8cecc;strokeColor=#b85450;" parent="1" vertex="1">
          <mxGeometry x="160" y="190" width="20" height="20" as="geometry" />
        </mxCell>
        <mxCell id="7yAe7alW8cooY3Hqmog1-9" value="" style="rounded=0;whiteSpace=wrap;html=1;fillColor=#f8cecc;strokeColor=#b85450;" parent="1" vertex="1">
          <mxGeometry x="180" y="190" width="20" height="20" as="geometry" />
        </mxCell>
        <mxCell id="7yAe7alW8cooY3Hqmog1-10" value="" style="rounded=0;whiteSpace=wrap;html=1;" parent="1" vertex="1">
          <mxGeometry x="200" y="190" width="20" height="20" as="geometry" />
        </mxCell>
        <mxCell id="7yAe7alW8cooY3Hqmog1-11" value="" style="rounded=0;whiteSpace=wrap;html=1;" parent="1" vertex="1">
          <mxGeometry x="220" y="190" width="20" height="20" as="geometry" />
        </mxCell>
        <mxCell id="7yAe7alW8cooY3Hqmog1-12" value="" style="rounded=0;whiteSpace=wrap;html=1;" parent="1" vertex="1">
          <mxGeometry x="240" y="190" width="20" height="20" as="geometry" />
        </mxCell>
        <mxCell id="7yAe7alW8cooY3Hqmog1-13" value="" style="rounded=0;whiteSpace=wrap;html=1;" parent="1" vertex="1">
          <mxGeometry x="260" y="190" width="20" height="20" as="geometry" />
        </mxCell>
        <mxCell id="7yAe7alW8cooY3Hqmog1-14" value="" style="rounded=0;whiteSpace=wrap;html=1;" parent="1" vertex="1">
          <mxGeometry x="280" y="190" width="20" height="20" as="geometry" />
        </mxCell>
        <mxCell id="7yAe7alW8cooY3Hqmog1-15" value="" style="rounded=0;whiteSpace=wrap;html=1;" parent="1" vertex="1">
          <mxGeometry x="300" y="190" width="20" height="20" as="geometry" />
        </mxCell>
        <mxCell id="7yAe7alW8cooY3Hqmog1-25" value="" style="rounded=0;whiteSpace=wrap;html=1;fillColor=#f8cecc;strokeColor=#b85450;" parent="1" vertex="1">
          <mxGeometry x="150" y="200" width="20" height="20" as="geometry" />
        </mxCell>
        <mxCell id="7yAe7alW8cooY3Hqmog1-26" value="" style="rounded=0;whiteSpace=wrap;html=1;fillColor=#f8cecc;strokeColor=#b85450;" parent="1" vertex="1">
          <mxGeometry x="170" y="200" width="20" height="20" as="geometry" />
        </mxCell>
        <mxCell id="7yAe7alW8cooY3Hqmog1-27" value="" style="rounded=0;whiteSpace=wrap;html=1;" parent="1" vertex="1">
          <mxGeometry x="190" y="200" width="20" height="20" as="geometry" />
        </mxCell>
        <mxCell id="7yAe7alW8cooY3Hqmog1-28" value="" style="rounded=0;whiteSpace=wrap;html=1;fillColor=#f8cecc;strokeColor=#b85450;" parent="1" vertex="1">
          <mxGeometry x="210" y="200" width="20" height="20" as="geometry" />
        </mxCell>
        <mxCell id="7yAe7alW8cooY3Hqmog1-29" value="" style="rounded=0;whiteSpace=wrap;html=1;" parent="1" vertex="1">
          <mxGeometry x="230" y="200" width="20" height="20" as="geometry" />
        </mxCell>
        <mxCell id="7yAe7alW8cooY3Hqmog1-30" value="" style="rounded=0;whiteSpace=wrap;html=1;" parent="1" vertex="1">
          <mxGeometry x="250" y="200" width="20" height="20" as="geometry" />
        </mxCell>
        <mxCell id="7yAe7alW8cooY3Hqmog1-31" value="" style="rounded=0;whiteSpace=wrap;html=1;" parent="1" vertex="1">
          <mxGeometry x="270" y="200" width="20" height="20" as="geometry" />
        </mxCell>
        <mxCell id="7yAe7alW8cooY3Hqmog1-32" value="" style="rounded=0;whiteSpace=wrap;html=1;" parent="1" vertex="1">
          <mxGeometry x="290" y="200" width="20" height="20" as="geometry" />
        </mxCell>
        <mxCell id="7yAe7alW8cooY3Hqmog1-33" value="" style="rounded=0;whiteSpace=wrap;html=1;" parent="1" vertex="1">
          <mxGeometry x="310" y="200" width="20" height="20" as="geometry" />
        </mxCell>
        <mxCell id="7yAe7alW8cooY3Hqmog1-34" value="" style="rounded=0;whiteSpace=wrap;html=1;fillColor=#f8cecc;strokeColor=#b85450;" parent="1" vertex="1">
          <mxGeometry x="160" y="210" width="20" height="20" as="geometry" />
        </mxCell>
        <mxCell id="7yAe7alW8cooY3Hqmog1-35" value="" style="rounded=0;whiteSpace=wrap;html=1;fillColor=#f8cecc;strokeColor=#b85450;" parent="1" vertex="1">
          <mxGeometry x="180" y="210" width="20" height="20" as="geometry" />
        </mxCell>
        <mxCell id="7yAe7alW8cooY3Hqmog1-36" value="" style="rounded=0;whiteSpace=wrap;html=1;" parent="1" vertex="1">
          <mxGeometry x="200" y="210" width="20" height="20" as="geometry" />
        </mxCell>
        <mxCell id="7yAe7alW8cooY3Hqmog1-37" value="" style="rounded=0;whiteSpace=wrap;html=1;" parent="1" vertex="1">
          <mxGeometry x="220" y="210" width="20" height="20" as="geometry" />
        </mxCell>
        <mxCell id="7yAe7alW8cooY3Hqmog1-38" value="" style="rounded=0;whiteSpace=wrap;html=1;fillColor=#f8cecc;strokeColor=#b85450;" parent="1" vertex="1">
          <mxGeometry x="240" y="210" width="20" height="20" as="geometry" />
        </mxCell>
        <mxCell id="7yAe7alW8cooY3Hqmog1-39" value="" style="rounded=0;whiteSpace=wrap;html=1;" parent="1" vertex="1">
          <mxGeometry x="260" y="210" width="20" height="20" as="geometry" />
        </mxCell>
        <mxCell id="7yAe7alW8cooY3Hqmog1-40" value="" style="rounded=0;whiteSpace=wrap;html=1;" parent="1" vertex="1">
          <mxGeometry x="280" y="210" width="20" height="20" as="geometry" />
        </mxCell>
        <mxCell id="7yAe7alW8cooY3Hqmog1-41" value="" style="rounded=0;whiteSpace=wrap;html=1;" parent="1" vertex="1">
          <mxGeometry x="300" y="210" width="20" height="20" as="geometry" />
        </mxCell>
        <mxCell id="7yAe7alW8cooY3Hqmog1-42" value="" style="rounded=0;whiteSpace=wrap;html=1;" parent="1" vertex="1">
          <mxGeometry x="320" y="210" width="20" height="20" as="geometry" />
        </mxCell>
        <mxCell id="7yAe7alW8cooY3Hqmog1-43" value="" style="rounded=0;whiteSpace=wrap;html=1;fillColor=#f8cecc;strokeColor=#b85450;" parent="1" vertex="1">
          <mxGeometry x="170" y="220" width="20" height="20" as="geometry" />
        </mxCell>
        <mxCell id="7yAe7alW8cooY3Hqmog1-44" value="" style="rounded=0;whiteSpace=wrap;html=1;fillColor=#f8cecc;strokeColor=#b85450;" parent="1" vertex="1">
          <mxGeometry x="190" y="220" width="20" height="20" as="geometry" />
        </mxCell>
        <mxCell id="7yAe7alW8cooY3Hqmog1-45" value="" style="rounded=0;whiteSpace=wrap;html=1;" parent="1" vertex="1">
          <mxGeometry x="210" y="220" width="20" height="20" as="geometry" />
        </mxCell>
        <mxCell id="7yAe7alW8cooY3Hqmog1-46" value="" style="rounded=0;whiteSpace=wrap;html=1;" parent="1" vertex="1">
          <mxGeometry x="230" y="220" width="20" height="20" as="geometry" />
        </mxCell>
        <mxCell id="7yAe7alW8cooY3Hqmog1-47" value="" style="rounded=0;whiteSpace=wrap;html=1;" parent="1" vertex="1">
          <mxGeometry x="250" y="220" width="20" height="20" as="geometry" />
        </mxCell>
        <mxCell id="7yAe7alW8cooY3Hqmog1-48" value="" style="rounded=0;whiteSpace=wrap;html=1;fillColor=#f8cecc;strokeColor=#b85450;" parent="1" vertex="1">
          <mxGeometry x="270" y="220" width="20" height="20" as="geometry" />
        </mxCell>
        <mxCell id="7yAe7alW8cooY3Hqmog1-49" value="" style="rounded=0;whiteSpace=wrap;html=1;" parent="1" vertex="1">
          <mxGeometry x="290" y="220" width="20" height="20" as="geometry" />
        </mxCell>
        <mxCell id="7yAe7alW8cooY3Hqmog1-50" value="" style="rounded=0;whiteSpace=wrap;html=1;" parent="1" vertex="1">
          <mxGeometry x="310" y="220" width="20" height="20" as="geometry" />
        </mxCell>
        <mxCell id="7yAe7alW8cooY3Hqmog1-51" value="" style="rounded=0;whiteSpace=wrap;html=1;" parent="1" vertex="1">
          <mxGeometry x="330" y="220" width="20" height="20" as="geometry" />
        </mxCell>
        <mxCell id="7yAe7alW8cooY3Hqmog1-52" value="" style="rounded=0;whiteSpace=wrap;html=1;" parent="1" vertex="1">
          <mxGeometry x="180" y="230" width="20" height="20" as="geometry" />
        </mxCell>
        <mxCell id="7yAe7alW8cooY3Hqmog1-53" value="" style="rounded=0;whiteSpace=wrap;html=1;" parent="1" vertex="1">
          <mxGeometry x="200" y="230" width="20" height="20" as="geometry" />
        </mxCell>
        <mxCell id="7yAe7alW8cooY3Hqmog1-54" value="" style="rounded=0;whiteSpace=wrap;html=1;" parent="1" vertex="1">
          <mxGeometry x="220" y="230" width="20" height="20" as="geometry" />
        </mxCell>
        <mxCell id="7yAe7alW8cooY3Hqmog1-55" value="" style="rounded=0;whiteSpace=wrap;html=1;" parent="1" vertex="1">
          <mxGeometry x="240" y="230" width="20" height="20" as="geometry" />
        </mxCell>
        <mxCell id="7yAe7alW8cooY3Hqmog1-56" value="" style="rounded=0;whiteSpace=wrap;html=1;" parent="1" vertex="1">
          <mxGeometry x="260" y="230" width="20" height="20" as="geometry" />
        </mxCell>
        <mxCell id="7yAe7alW8cooY3Hqmog1-57" value="" style="rounded=0;whiteSpace=wrap;html=1;" parent="1" vertex="1">
          <mxGeometry x="280" y="230" width="20" height="20" as="geometry" />
        </mxCell>
        <mxCell id="7yAe7alW8cooY3Hqmog1-58" value="" style="rounded=0;whiteSpace=wrap;html=1;fillColor=#f8cecc;strokeColor=#b85450;" parent="1" vertex="1">
          <mxGeometry x="300" y="230" width="20" height="20" as="geometry" />
        </mxCell>
        <mxCell id="7yAe7alW8cooY3Hqmog1-59" value="" style="rounded=0;whiteSpace=wrap;html=1;fillColor=#f8cecc;strokeColor=#b85450;" parent="1" vertex="1">
          <mxGeometry x="320" y="230" width="20" height="20" as="geometry" />
        </mxCell>
        <mxCell id="7yAe7alW8cooY3Hqmog1-60" value="" style="rounded=0;whiteSpace=wrap;html=1;fillColor=#f8cecc;strokeColor=#b85450;" parent="1" vertex="1">
          <mxGeometry x="340" y="230" width="20" height="20" as="geometry" />
        </mxCell>
        <mxCell id="7yAe7alW8cooY3Hqmog1-61" value="Processed Data" style="rounded=1;whiteSpace=wrap;html=1;" parent="1" vertex="1">
          <mxGeometry x="175" y="65" width="120" height="60" as="geometry" />
        </mxCell>
        <mxCell id="Xtq4YtA2jTAdWXPO-iqv-1" value="" style="rounded=0;whiteSpace=wrap;html=1;fillColor=#f8cecc;strokeColor=#b85450;" parent="1" vertex="1">
          <mxGeometry x="510" y="230" width="20" height="20" as="geometry" />
        </mxCell>
        <mxCell id="Xtq4YtA2jTAdWXPO-iqv-2" value="" style="rounded=0;whiteSpace=wrap;html=1;fillColor=#f8cecc;strokeColor=#b85450;" parent="1" vertex="1">
          <mxGeometry x="550" y="230" width="20" height="20" as="geometry" />
        </mxCell>
        <mxCell id="Xtq4YtA2jTAdWXPO-iqv-3" value="" style="rounded=0;whiteSpace=wrap;html=1;fillColor=#f8cecc;strokeColor=#b85450;" parent="1" vertex="1">
          <mxGeometry x="530" y="230" width="20" height="20" as="geometry" />
        </mxCell>
        <mxCell id="Xtq4YtA2jTAdWXPO-iqv-4" value="" style="rounded=0;whiteSpace=wrap;html=1;" parent="1" vertex="1">
          <mxGeometry x="510" y="180" width="20" height="20" as="geometry" />
        </mxCell>
        <mxCell id="Xtq4YtA2jTAdWXPO-iqv-5" value="" style="rounded=0;whiteSpace=wrap;html=1;" parent="1" vertex="1">
          <mxGeometry x="530" y="180" width="20" height="20" as="geometry" />
        </mxCell>
        <mxCell id="Xtq4YtA2jTAdWXPO-iqv-6" value="" style="rounded=0;whiteSpace=wrap;html=1;" parent="1" vertex="1">
          <mxGeometry x="550" y="180" width="20" height="20" as="geometry" />
        </mxCell>
        <mxCell id="Xtq4YtA2jTAdWXPO-iqv-7" value="" style="rounded=0;whiteSpace=wrap;html=1;" parent="1" vertex="1">
          <mxGeometry x="570" y="180" width="20" height="20" as="geometry" />
        </mxCell>
        <mxCell id="Xtq4YtA2jTAdWXPO-iqv-8" value="" style="rounded=0;whiteSpace=wrap;html=1;" parent="1" vertex="1">
          <mxGeometry x="590" y="180" width="20" height="20" as="geometry" />
        </mxCell>
        <mxCell id="Xtq4YtA2jTAdWXPO-iqv-9" value="" style="rounded=0;whiteSpace=wrap;html=1;" parent="1" vertex="1">
          <mxGeometry x="610" y="180" width="20" height="20" as="geometry" />
        </mxCell>
        <mxCell id="Xtq4YtA2jTAdWXPO-iqv-54" style="edgeStyle=orthogonalEdgeStyle;rounded=0;orthogonalLoop=1;jettySize=auto;html=1;entryX=0.5;entryY=0;entryDx=0;entryDy=0;" parent="1" source="Xtq4YtA2jTAdWXPO-iqv-10" target="Xtq4YtA2jTAdWXPO-iqv-11" edge="1">
          <mxGeometry relative="1" as="geometry">
            <Array as="points">
              <mxPoint x="870" y="220" />
            </Array>
          </mxGeometry>
        </mxCell>
        <mxCell id="Xtq4YtA2jTAdWXPO-iqv-10" value="LightGBM" style="rounded=1;whiteSpace=wrap;html=1;" parent="1" vertex="1">
          <mxGeometry x="700" y="190" width="120" height="60" as="geometry" />
        </mxCell>
        <mxCell id="Xtq4YtA2jTAdWXPO-iqv-22" value="" style="edgeStyle=orthogonalEdgeStyle;rounded=0;orthogonalLoop=1;jettySize=auto;html=1;" parent="1" source="Xtq4YtA2jTAdWXPO-iqv-11" target="Xtq4YtA2jTAdWXPO-iqv-12" edge="1">
          <mxGeometry relative="1" as="geometry" />
        </mxCell>
        <mxCell id="Xtq4YtA2jTAdWXPO-iqv-11" value="Fitness Function" style="rounded=1;whiteSpace=wrap;html=1;" parent="1" vertex="1">
          <mxGeometry x="810" y="290" width="120" height="60" as="geometry" />
        </mxCell>
        <mxCell id="Xtq4YtA2jTAdWXPO-iqv-23" value="" style="edgeStyle=orthogonalEdgeStyle;rounded=0;orthogonalLoop=1;jettySize=auto;html=1;" parent="1" source="Xtq4YtA2jTAdWXPO-iqv-12" target="Xtq4YtA2jTAdWXPO-iqv-13" edge="1">
          <mxGeometry relative="1" as="geometry" />
        </mxCell>
        <mxCell id="Xtq4YtA2jTAdWXPO-iqv-12" value="Calculate Fitness" style="rounded=1;whiteSpace=wrap;html=1;" parent="1" vertex="1">
          <mxGeometry x="810" y="410" width="120" height="60" as="geometry" />
        </mxCell>
        <mxCell id="Xtq4YtA2jTAdWXPO-iqv-24" value="" style="edgeStyle=orthogonalEdgeStyle;rounded=0;orthogonalLoop=1;jettySize=auto;html=1;" parent="1" source="Xtq4YtA2jTAdWXPO-iqv-13" target="Xtq4YtA2jTAdWXPO-iqv-14" edge="1">
          <mxGeometry relative="1" as="geometry" />
        </mxCell>
        <mxCell id="Xtq4YtA2jTAdWXPO-iqv-13" value="Mutation" style="rounded=1;whiteSpace=wrap;html=1;" parent="1" vertex="1">
          <mxGeometry x="810" y="500" width="120" height="60" as="geometry" />
        </mxCell>
        <mxCell id="Xtq4YtA2jTAdWXPO-iqv-25" value="" style="edgeStyle=orthogonalEdgeStyle;rounded=0;orthogonalLoop=1;jettySize=auto;html=1;" parent="1" source="Xtq4YtA2jTAdWXPO-iqv-14" target="Xtq4YtA2jTAdWXPO-iqv-15" edge="1">
          <mxGeometry relative="1" as="geometry" />
        </mxCell>
        <mxCell id="Xtq4YtA2jTAdWXPO-iqv-14" value="Crossover" style="rounded=1;whiteSpace=wrap;html=1;" parent="1" vertex="1">
          <mxGeometry x="810" y="590" width="120" height="60" as="geometry" />
        </mxCell>
        <mxCell id="Xtq4YtA2jTAdWXPO-iqv-26" value="" style="edgeStyle=orthogonalEdgeStyle;rounded=0;orthogonalLoop=1;jettySize=auto;html=1;" parent="1" source="Xtq4YtA2jTAdWXPO-iqv-15" target="Xtq4YtA2jTAdWXPO-iqv-17" edge="1">
          <mxGeometry relative="1" as="geometry" />
        </mxCell>
        <mxCell id="Xtq4YtA2jTAdWXPO-iqv-15" value="Selection" style="rounded=1;whiteSpace=wrap;html=1;" parent="1" vertex="1">
          <mxGeometry x="810" y="680" width="120" height="60" as="geometry" />
        </mxCell>
        <mxCell id="Xtq4YtA2jTAdWXPO-iqv-27" value="" style="edgeStyle=orthogonalEdgeStyle;rounded=0;orthogonalLoop=1;jettySize=auto;html=1;" parent="1" source="Xtq4YtA2jTAdWXPO-iqv-17" target="Xtq4YtA2jTAdWXPO-iqv-18" edge="1">
          <mxGeometry relative="1" as="geometry" />
        </mxCell>
        <mxCell id="Xtq4YtA2jTAdWXPO-iqv-28" value="" style="edgeStyle=orthogonalEdgeStyle;rounded=0;orthogonalLoop=1;jettySize=auto;html=1;" parent="1" source="Xtq4YtA2jTAdWXPO-iqv-17" target="Xtq4YtA2jTAdWXPO-iqv-21" edge="1">
          <mxGeometry relative="1" as="geometry" />
        </mxCell>
        <mxCell id="Xtq4YtA2jTAdWXPO-iqv-17" value="Termination&amp;nbsp;&lt;div&gt;Criterion&lt;/div&gt;" style="rhombus;whiteSpace=wrap;html=1;" parent="1" vertex="1">
          <mxGeometry x="640" y="670" width="110" height="80" as="geometry" />
        </mxCell>
        <mxCell id="Xtq4YtA2jTAdWXPO-iqv-32" style="edgeStyle=orthogonalEdgeStyle;rounded=0;orthogonalLoop=1;jettySize=auto;html=1;entryX=0;entryY=0.5;entryDx=0;entryDy=0;" parent="1" source="Xtq4YtA2jTAdWXPO-iqv-18" target="Xtq4YtA2jTAdWXPO-iqv-13" edge="1">
          <mxGeometry relative="1" as="geometry">
            <Array as="points">
              <mxPoint x="695" y="530" />
            </Array>
          </mxGeometry>
        </mxCell>
        <mxCell id="Xtq4YtA2jTAdWXPO-iqv-18" value="Next Generation" style="rounded=1;whiteSpace=wrap;html=1;" parent="1" vertex="1">
          <mxGeometry x="635" y="550" width="120" height="60" as="geometry" />
        </mxCell>
        <mxCell id="Xtq4YtA2jTAdWXPO-iqv-56" value="" style="edgeStyle=orthogonalEdgeStyle;rounded=0;orthogonalLoop=1;jettySize=auto;html=1;" parent="1" source="Xtq4YtA2jTAdWXPO-iqv-19" target="Xtq4YtA2jTAdWXPO-iqv-20" edge="1">
          <mxGeometry relative="1" as="geometry" />
        </mxCell>
        <mxCell id="Xtq4YtA2jTAdWXPO-iqv-19" value="Hyperparameter&amp;nbsp;&lt;div&gt;Space&lt;/div&gt;" style="ellipse;shape=cloud;whiteSpace=wrap;html=1;" parent="1" vertex="1">
          <mxGeometry x="470" y="390" width="130" height="100" as="geometry" />
        </mxCell>
        <mxCell id="Xtq4YtA2jTAdWXPO-iqv-31" value="" style="edgeStyle=orthogonalEdgeStyle;rounded=0;orthogonalLoop=1;jettySize=auto;html=1;" parent="1" source="Xtq4YtA2jTAdWXPO-iqv-20" target="Xtq4YtA2jTAdWXPO-iqv-12" edge="1">
          <mxGeometry relative="1" as="geometry" />
        </mxCell>
        <mxCell id="Xtq4YtA2jTAdWXPO-iqv-20" value="Initialize&lt;div&gt;Population&lt;/div&gt;" style="rounded=1;whiteSpace=wrap;html=1;" parent="1" vertex="1">
          <mxGeometry x="635" y="410" width="120" height="60" as="geometry" />
        </mxCell>
        <mxCell id="Xtq4YtA2jTAdWXPO-iqv-21" value="Optimal Hyperparameter" style="rounded=1;whiteSpace=wrap;html=1;" parent="1" vertex="1">
          <mxGeometry x="635" y="810" width="120" height="60" as="geometry" />
        </mxCell>
        <mxCell id="Xtq4YtA2jTAdWXPO-iqv-38" style="edgeStyle=orthogonalEdgeStyle;rounded=0;orthogonalLoop=1;jettySize=auto;html=1;entryX=0.5;entryY=0;entryDx=0;entryDy=0;" parent="1" source="Xtq4YtA2jTAdWXPO-iqv-33" target="Xtq4YtA2jTAdWXPO-iqv-34" edge="1">
          <mxGeometry relative="1" as="geometry" />
        </mxCell>
        <mxCell id="Xtq4YtA2jTAdWXPO-iqv-33" value="Model Performance&amp;nbsp; Metrics" style="rounded=1;whiteSpace=wrap;html=1;" parent="1" vertex="1">
          <mxGeometry x="190" y="410" width="120" height="60" as="geometry" />
        </mxCell>
        <mxCell id="Xtq4YtA2jTAdWXPO-iqv-39" value="" style="edgeStyle=orthogonalEdgeStyle;rounded=0;orthogonalLoop=1;jettySize=auto;html=1;" parent="1" source="Xtq4YtA2jTAdWXPO-iqv-34" target="Xtq4YtA2jTAdWXPO-iqv-35" edge="1">
          <mxGeometry relative="1" as="geometry" />
        </mxCell>
        <mxCell id="Xtq4YtA2jTAdWXPO-iqv-34" value="Better than Previous Metrics" style="rhombus;whiteSpace=wrap;html=1;" parent="1" vertex="1">
          <mxGeometry x="175" y="520" width="150" height="140" as="geometry" />
        </mxCell>
        <mxCell id="Xtq4YtA2jTAdWXPO-iqv-35" value="Assign New Best" style="rounded=1;whiteSpace=wrap;html=1;" parent="1" vertex="1">
          <mxGeometry x="190" y="710" width="120" height="60" as="geometry" />
        </mxCell>
        <mxCell id="Xtq4YtA2jTAdWXPO-iqv-36" value="" style="shape=curlyBracket;whiteSpace=wrap;html=1;rounded=1;labelPosition=left;verticalLabelPosition=middle;align=right;verticalAlign=middle;" parent="1" vertex="1">
          <mxGeometry x="120" y="175" width="20" height="90" as="geometry" />
        </mxCell>
        <mxCell id="Xtq4YtA2jTAdWXPO-iqv-44" style="edgeStyle=orthogonalEdgeStyle;rounded=0;orthogonalLoop=1;jettySize=auto;html=1;exitX=0.1;exitY=0.5;exitDx=0;exitDy=0;exitPerimeter=0;" parent="1" source="Xtq4YtA2jTAdWXPO-iqv-37" target="Xtq4YtA2jTAdWXPO-iqv-42" edge="1">
          <mxGeometry relative="1" as="geometry" />
        </mxCell>
        <mxCell id="Xtq4YtA2jTAdWXPO-iqv-37" value="" style="shape=curlyBracket;whiteSpace=wrap;html=1;rounded=1;flipH=1;labelPosition=right;verticalLabelPosition=middle;align=left;verticalAlign=middle;" parent="1" vertex="1">
          <mxGeometry x="630" y="175" width="20" height="90" as="geometry" />
        </mxCell>
        <mxCell id="Xtq4YtA2jTAdWXPO-iqv-40" style="edgeStyle=orthogonalEdgeStyle;rounded=0;orthogonalLoop=1;jettySize=auto;html=1;entryX=0.1;entryY=0.5;entryDx=0;entryDy=0;entryPerimeter=0;" parent="1" source="Xtq4YtA2jTAdWXPO-iqv-34" target="Xtq4YtA2jTAdWXPO-iqv-36" edge="1">
          <mxGeometry relative="1" as="geometry">
            <Array as="points">
              <mxPoint x="80" y="590" />
              <mxPoint x="80" y="220" />
            </Array>
          </mxGeometry>
        </mxCell>
        <mxCell id="Xtq4YtA2jTAdWXPO-iqv-41" style="edgeStyle=orthogonalEdgeStyle;rounded=0;orthogonalLoop=1;jettySize=auto;html=1;entryX=0.1;entryY=0.5;entryDx=0;entryDy=0;entryPerimeter=0;" parent="1" source="Xtq4YtA2jTAdWXPO-iqv-35" target="Xtq4YtA2jTAdWXPO-iqv-36" edge="1">
          <mxGeometry relative="1" as="geometry">
            <Array as="points">
              <mxPoint x="80" y="740" />
              <mxPoint x="80" y="220" />
            </Array>
          </mxGeometry>
        </mxCell>
        <mxCell id="Xtq4YtA2jTAdWXPO-iqv-46" style="edgeStyle=orthogonalEdgeStyle;rounded=0;orthogonalLoop=1;jettySize=auto;html=1;entryX=0.5;entryY=0;entryDx=0;entryDy=0;entryPerimeter=0;" parent="1" target="Xtq4YtA2jTAdWXPO-iqv-47" edge="1">
          <mxGeometry relative="1" as="geometry">
            <mxPoint x="420" y="440" as="targetPoint" />
            <mxPoint x="635" y="330" as="sourcePoint" />
          </mxGeometry>
        </mxCell>
        <mxCell id="Xtq4YtA2jTAdWXPO-iqv-42" value="" style="verticalLabelPosition=bottom;verticalAlign=top;html=1;shape=mxgraph.flowchart.summing_function;" parent="1" vertex="1">
          <mxGeometry x="635" y="320" width="25" height="20" as="geometry" />
        </mxCell>
        <mxCell id="Xtq4YtA2jTAdWXPO-iqv-45" style="edgeStyle=orthogonalEdgeStyle;rounded=0;orthogonalLoop=1;jettySize=auto;html=1;entryX=1;entryY=0.5;entryDx=0;entryDy=0;entryPerimeter=0;" parent="1" source="Xtq4YtA2jTAdWXPO-iqv-10" target="Xtq4YtA2jTAdWXPO-iqv-42" edge="1">
          <mxGeometry relative="1" as="geometry" />
        </mxCell>
        <mxCell id="Xtq4YtA2jTAdWXPO-iqv-49" style="edgeStyle=orthogonalEdgeStyle;rounded=0;orthogonalLoop=1;jettySize=auto;html=1;entryX=1;entryY=0.5;entryDx=0;entryDy=0;" parent="1" source="Xtq4YtA2jTAdWXPO-iqv-47" target="Xtq4YtA2jTAdWXPO-iqv-33" edge="1">
          <mxGeometry relative="1" as="geometry" />
        </mxCell>
        <mxCell id="Xtq4YtA2jTAdWXPO-iqv-47" value="" style="verticalLabelPosition=bottom;verticalAlign=top;html=1;shape=mxgraph.flowchart.summing_function;" parent="1" vertex="1">
          <mxGeometry x="410" y="430" width="25" height="20" as="geometry" />
        </mxCell>
        <mxCell id="Xtq4YtA2jTAdWXPO-iqv-48" style="edgeStyle=orthogonalEdgeStyle;rounded=0;orthogonalLoop=1;jettySize=auto;html=1;entryX=0.5;entryY=1;entryDx=0;entryDy=0;entryPerimeter=0;" parent="1" source="Xtq4YtA2jTAdWXPO-iqv-21" target="Xtq4YtA2jTAdWXPO-iqv-47" edge="1">
          <mxGeometry relative="1" as="geometry" />
        </mxCell>
        <mxCell id="Xtq4YtA2jTAdWXPO-iqv-51" value="" style="verticalLabelPosition=bottom;verticalAlign=top;html=1;strokeWidth=2;shape=mxgraph.arrows2.arrow;dy=0.6;dx=40;notch=0;direction=south;" parent="1" vertex="1">
          <mxGeometry x="227.5" y="130" width="15" height="50" as="geometry" />
        </mxCell>
        <mxCell id="Xtq4YtA2jTAdWXPO-iqv-52" value="" style="endArrow=classic;html=1;rounded=0;entryX=0;entryY=0.5;entryDx=0;entryDy=0;" parent="1" target="Xtq4YtA2jTAdWXPO-iqv-4" edge="1">
          <mxGeometry width="50" height="50" relative="1" as="geometry">
            <mxPoint x="350" y="215" as="sourcePoint" />
            <mxPoint x="400" y="165" as="targetPoint" />
          </mxGeometry>
        </mxCell>
        <mxCell id="Xtq4YtA2jTAdWXPO-iqv-53" value="" style="endArrow=classic;html=1;rounded=0;entryX=0;entryY=0.5;entryDx=0;entryDy=0;" parent="1" target="Xtq4YtA2jTAdWXPO-iqv-1" edge="1">
          <mxGeometry width="50" height="50" relative="1" as="geometry">
            <mxPoint x="350" y="215" as="sourcePoint" />
            <mxPoint x="400" y="165" as="targetPoint" />
          </mxGeometry>
        </mxCell>
        <mxCell id="Xtq4YtA2jTAdWXPO-iqv-58" value="" style="endArrow=none;dashed=1;html=1;rounded=0;" parent="1" edge="1">
          <mxGeometry width="50" height="50" relative="1" as="geometry">
            <mxPoint x="460" y="390" as="sourcePoint" />
            <mxPoint x="960" y="390" as="targetPoint" />
          </mxGeometry>
        </mxCell>
        <mxCell id="Xtq4YtA2jTAdWXPO-iqv-59" value="" style="endArrow=none;dashed=1;html=1;rounded=0;" parent="1" edge="1">
          <mxGeometry width="50" height="50" relative="1" as="geometry">
            <mxPoint x="960" y="390" as="sourcePoint" />
            <mxPoint x="960" y="880.800048828125" as="targetPoint" />
          </mxGeometry>
        </mxCell>
        <mxCell id="Xtq4YtA2jTAdWXPO-iqv-60" value="" style="endArrow=none;dashed=1;html=1;rounded=0;" parent="1" edge="1">
          <mxGeometry width="50" height="50" relative="1" as="geometry">
            <mxPoint x="460" y="390" as="sourcePoint" />
            <mxPoint x="460" y="880.800048828125" as="targetPoint" />
          </mxGeometry>
        </mxCell>
        <mxCell id="Xtq4YtA2jTAdWXPO-iqv-61" value="" style="endArrow=none;dashed=1;html=1;rounded=0;" parent="1" edge="1">
          <mxGeometry width="50" height="50" relative="1" as="geometry">
            <mxPoint x="460" y="880" as="sourcePoint" />
            <mxPoint x="960" y="880" as="targetPoint" />
          </mxGeometry>
        </mxCell>
        <mxCell id="Xtq4YtA2jTAdWXPO-iqv-62" value="" style="endArrow=none;dashed=1;html=1;rounded=0;" parent="1" edge="1">
          <mxGeometry width="50" height="50" relative="1" as="geometry">
            <mxPoint x="50" y="160" as="sourcePoint" />
            <mxPoint x="670" y="160" as="targetPoint" />
          </mxGeometry>
        </mxCell>
        <mxCell id="Xtq4YtA2jTAdWXPO-iqv-63" value="" style="endArrow=none;dashed=1;html=1;rounded=0;" parent="1" edge="1">
          <mxGeometry width="50" height="50" relative="1" as="geometry">
            <mxPoint x="50" y="860" as="sourcePoint" />
            <mxPoint x="450" y="860" as="targetPoint" />
          </mxGeometry>
        </mxCell>
        <mxCell id="Xtq4YtA2jTAdWXPO-iqv-64" value="" style="endArrow=none;dashed=1;html=1;rounded=0;" parent="1" edge="1">
          <mxGeometry width="50" height="50" relative="1" as="geometry">
            <mxPoint x="50" y="160" as="sourcePoint" />
            <mxPoint x="50" y="860.800048828125" as="targetPoint" />
          </mxGeometry>
        </mxCell>
        <mxCell id="Xtq4YtA2jTAdWXPO-iqv-65" value="" style="endArrow=none;dashed=1;html=1;rounded=0;" parent="1" edge="1">
          <mxGeometry width="50" height="50" relative="1" as="geometry">
            <mxPoint x="450" y="370" as="sourcePoint" />
            <mxPoint x="450" y="860.800048828125" as="targetPoint" />
          </mxGeometry>
        </mxCell>
        <mxCell id="Xtq4YtA2jTAdWXPO-iqv-66" value="" style="endArrow=none;dashed=1;html=1;rounded=0;" parent="1" edge="1">
          <mxGeometry width="50" height="50" relative="1" as="geometry">
            <mxPoint x="670" y="160" as="sourcePoint" />
            <mxPoint x="670" y="370" as="targetPoint" />
          </mxGeometry>
        </mxCell>
        <mxCell id="Xtq4YtA2jTAdWXPO-iqv-67" value="" style="endArrow=none;dashed=1;html=1;rounded=0;" parent="1" edge="1">
          <mxGeometry width="50" height="50" relative="1" as="geometry">
            <mxPoint x="450" y="370" as="sourcePoint" />
            <mxPoint x="670" y="370" as="targetPoint" />
          </mxGeometry>
        </mxCell>
        <mxCell id="9PhvZ-ycNcugYNsBSybq-10" value="" style="edgeStyle=orthogonalEdgeStyle;rounded=0;orthogonalLoop=1;jettySize=auto;html=1;" edge="1" parent="1" source="9PhvZ-ycNcugYNsBSybq-1" target="9PhvZ-ycNcugYNsBSybq-3">
          <mxGeometry relative="1" as="geometry" />
        </mxCell>
        <mxCell id="9PhvZ-ycNcugYNsBSybq-1" value="Features" style="shape=cylinder3;whiteSpace=wrap;html=1;boundedLbl=1;backgroundOutline=1;size=15;" vertex="1" parent="1">
          <mxGeometry x="120" y="-100" width="60" height="80" as="geometry" />
        </mxCell>
        <mxCell id="9PhvZ-ycNcugYNsBSybq-9" style="edgeStyle=orthogonalEdgeStyle;rounded=0;orthogonalLoop=1;jettySize=auto;html=1;entryX=0;entryY=0.5;entryDx=0;entryDy=0;" edge="1" parent="1" source="9PhvZ-ycNcugYNsBSybq-2" target="9PhvZ-ycNcugYNsBSybq-5">
          <mxGeometry relative="1" as="geometry" />
        </mxCell>
        <mxCell id="9PhvZ-ycNcugYNsBSybq-2" value="GIS" style="shape=cylinder3;whiteSpace=wrap;html=1;boundedLbl=1;backgroundOutline=1;size=15;" vertex="1" parent="1">
          <mxGeometry x="120" y="-250" width="60" height="80" as="geometry" />
        </mxCell>
        <mxCell id="9PhvZ-ycNcugYNsBSybq-11" value="" style="edgeStyle=orthogonalEdgeStyle;rounded=0;orthogonalLoop=1;jettySize=auto;html=1;" edge="1" parent="1" source="9PhvZ-ycNcugYNsBSybq-3" target="9PhvZ-ycNcugYNsBSybq-4">
          <mxGeometry relative="1" as="geometry" />
        </mxCell>
        <mxCell id="9PhvZ-ycNcugYNsBSybq-3" value="Missing Value Imputation" style="rounded=1;whiteSpace=wrap;html=1;" vertex="1" parent="1">
          <mxGeometry x="210" y="-90" width="120" height="60" as="geometry" />
        </mxCell>
        <mxCell id="9PhvZ-ycNcugYNsBSybq-13" style="edgeStyle=orthogonalEdgeStyle;rounded=0;orthogonalLoop=1;jettySize=auto;html=1;entryX=0.5;entryY=1;entryDx=0;entryDy=0;" edge="1" parent="1" source="9PhvZ-ycNcugYNsBSybq-4" target="9PhvZ-ycNcugYNsBSybq-6">
          <mxGeometry relative="1" as="geometry" />
        </mxCell>
        <mxCell id="9PhvZ-ycNcugYNsBSybq-4" value="Feature Extraction" style="rounded=1;whiteSpace=wrap;html=1;" vertex="1" parent="1">
          <mxGeometry x="360" y="-90" width="120" height="60" as="geometry" />
        </mxCell>
        <mxCell id="9PhvZ-ycNcugYNsBSybq-12" style="edgeStyle=orthogonalEdgeStyle;rounded=0;orthogonalLoop=1;jettySize=auto;html=1;entryX=0.5;entryY=0;entryDx=0;entryDy=0;" edge="1" parent="1" source="9PhvZ-ycNcugYNsBSybq-5" target="9PhvZ-ycNcugYNsBSybq-6">
          <mxGeometry relative="1" as="geometry" />
        </mxCell>
        <mxCell id="9PhvZ-ycNcugYNsBSybq-5" value="Feature Extraction" style="rounded=1;whiteSpace=wrap;html=1;" vertex="1" parent="1">
          <mxGeometry x="363" y="-240" width="120" height="60" as="geometry" />
        </mxCell>
        <mxCell id="9PhvZ-ycNcugYNsBSybq-14" style="edgeStyle=orthogonalEdgeStyle;rounded=0;orthogonalLoop=1;jettySize=auto;html=1;entryX=0.5;entryY=0;entryDx=0;entryDy=0;" edge="1" parent="1" source="9PhvZ-ycNcugYNsBSybq-6" target="9PhvZ-ycNcugYNsBSybq-7">
          <mxGeometry relative="1" as="geometry">
            <Array as="points">
              <mxPoint x="600" y="-140" />
            </Array>
          </mxGeometry>
        </mxCell>
        <mxCell id="9PhvZ-ycNcugYNsBSybq-6" value="" style="shape=orEllipse;perimeter=ellipsePerimeter;whiteSpace=wrap;html=1;backgroundOutline=1;" vertex="1" parent="1">
          <mxGeometry x="510" y="-160" width="40" height="40" as="geometry" />
        </mxCell>
        <mxCell id="9PhvZ-ycNcugYNsBSybq-15" style="edgeStyle=orthogonalEdgeStyle;rounded=0;orthogonalLoop=1;jettySize=auto;html=1;" edge="1" parent="1" source="9PhvZ-ycNcugYNsBSybq-7" target="9PhvZ-ycNcugYNsBSybq-8">
          <mxGeometry relative="1" as="geometry" />
        </mxCell>
        <mxCell id="9PhvZ-ycNcugYNsBSybq-7" value="WQI Calculation" style="rounded=1;whiteSpace=wrap;html=1;" vertex="1" parent="1">
          <mxGeometry x="540" y="65" width="120" height="60" as="geometry" />
        </mxCell>
        <mxCell id="9PhvZ-ycNcugYNsBSybq-16" style="edgeStyle=orthogonalEdgeStyle;rounded=0;orthogonalLoop=1;jettySize=auto;html=1;entryX=1;entryY=0.5;entryDx=0;entryDy=0;" edge="1" parent="1" source="9PhvZ-ycNcugYNsBSybq-8" target="7yAe7alW8cooY3Hqmog1-61">
          <mxGeometry relative="1" as="geometry" />
        </mxCell>
        <mxCell id="9PhvZ-ycNcugYNsBSybq-8" value="WQC Determination" style="rounded=1;whiteSpace=wrap;html=1;" vertex="1" parent="1">
          <mxGeometry x="363" y="65" width="120" height="60" as="geometry" />
        </mxCell>
        <mxCell id="9PhvZ-ycNcugYNsBSybq-24" style="edgeStyle=orthogonalEdgeStyle;rounded=0;orthogonalLoop=1;jettySize=auto;html=1;entryX=0.5;entryY=0;entryDx=0;entryDy=0;" edge="1" parent="1" source="9PhvZ-ycNcugYNsBSybq-18" target="9PhvZ-ycNcugYNsBSybq-23">
          <mxGeometry relative="1" as="geometry">
            <Array as="points">
              <mxPoint x="215" y="1115" />
              <mxPoint x="470" y="1115" />
            </Array>
          </mxGeometry>
        </mxCell>
        <mxCell id="9PhvZ-ycNcugYNsBSybq-25" style="edgeStyle=orthogonalEdgeStyle;rounded=0;orthogonalLoop=1;jettySize=auto;html=1;entryX=0.5;entryY=0;entryDx=0;entryDy=0;" edge="1" parent="1" source="9PhvZ-ycNcugYNsBSybq-18" target="9PhvZ-ycNcugYNsBSybq-21">
          <mxGeometry relative="1" as="geometry" />
        </mxCell>
        <mxCell id="9PhvZ-ycNcugYNsBSybq-18" value="Optimal Model" style="rounded=1;whiteSpace=wrap;html=1;" vertex="1" parent="1">
          <mxGeometry x="155" y="1025" width="120" height="60" as="geometry" />
        </mxCell>
        <mxCell id="9PhvZ-ycNcugYNsBSybq-29" style="edgeStyle=orthogonalEdgeStyle;rounded=0;orthogonalLoop=1;jettySize=auto;html=1;" edge="1" parent="1" source="9PhvZ-ycNcugYNsBSybq-21" target="9PhvZ-ycNcugYNsBSybq-28">
          <mxGeometry relative="1" as="geometry" />
        </mxCell>
        <mxCell id="9PhvZ-ycNcugYNsBSybq-21" value="SHAP" style="rounded=1;whiteSpace=wrap;html=1;" vertex="1" parent="1">
          <mxGeometry x="155" y="1145" width="120" height="60" as="geometry" />
        </mxCell>
        <mxCell id="9PhvZ-ycNcugYNsBSybq-23" value="Model Performance metrics" style="rounded=1;whiteSpace=wrap;html=1;" vertex="1" parent="1">
          <mxGeometry x="410" y="1135" width="120" height="60" as="geometry" />
        </mxCell>
        <mxCell id="9PhvZ-ycNcugYNsBSybq-27" style="edgeStyle=orthogonalEdgeStyle;rounded=0;orthogonalLoop=1;jettySize=auto;html=1;" edge="1" parent="1" source="9PhvZ-ycNcugYNsBSybq-26" target="9PhvZ-ycNcugYNsBSybq-18">
          <mxGeometry relative="1" as="geometry" />
        </mxCell>
        <mxCell id="9PhvZ-ycNcugYNsBSybq-32" style="edgeStyle=orthogonalEdgeStyle;rounded=0;orthogonalLoop=1;jettySize=auto;html=1;entryX=0;entryY=0.5;entryDx=0;entryDy=0;" edge="1" parent="1" source="9PhvZ-ycNcugYNsBSybq-26" target="9PhvZ-ycNcugYNsBSybq-30">
          <mxGeometry relative="1" as="geometry" />
        </mxCell>
        <mxCell id="9PhvZ-ycNcugYNsBSybq-26" value="Processed Data" style="shape=cylinder3;whiteSpace=wrap;html=1;boundedLbl=1;backgroundOutline=1;size=15;" vertex="1" parent="1">
          <mxGeometry x="405" y="1010" width="70" height="90" as="geometry" />
        </mxCell>
        <mxCell id="9PhvZ-ycNcugYNsBSybq-28" value="Model Explanation" style="rounded=1;whiteSpace=wrap;html=1;" vertex="1" parent="1">
          <mxGeometry x="155" y="1255" width="120" height="60" as="geometry" />
        </mxCell>
        <mxCell id="9PhvZ-ycNcugYNsBSybq-33" value="" style="edgeStyle=orthogonalEdgeStyle;rounded=0;orthogonalLoop=1;jettySize=auto;html=1;" edge="1" parent="1" source="9PhvZ-ycNcugYNsBSybq-30" target="9PhvZ-ycNcugYNsBSybq-31">
          <mxGeometry relative="1" as="geometry" />
        </mxCell>
        <mxCell id="9PhvZ-ycNcugYNsBSybq-30" value="PCA" style="rounded=1;whiteSpace=wrap;html=1;" vertex="1" parent="1">
          <mxGeometry x="575" y="1025" width="120" height="60" as="geometry" />
        </mxCell>
        <mxCell id="9PhvZ-ycNcugYNsBSybq-35" style="edgeStyle=orthogonalEdgeStyle;rounded=0;orthogonalLoop=1;jettySize=auto;html=1;entryX=0.5;entryY=0;entryDx=0;entryDy=0;" edge="1" parent="1" source="9PhvZ-ycNcugYNsBSybq-31" target="9PhvZ-ycNcugYNsBSybq-34">
          <mxGeometry relative="1" as="geometry" />
        </mxCell>
        <mxCell id="9PhvZ-ycNcugYNsBSybq-31" value="KMeans" style="rounded=1;whiteSpace=wrap;html=1;" vertex="1" parent="1">
          <mxGeometry x="575" y="1135" width="120" height="60" as="geometry" />
        </mxCell>
        <mxCell id="9PhvZ-ycNcugYNsBSybq-34" value="Clustering&amp;nbsp;&lt;div&gt;Analysis&lt;/div&gt;" style="rounded=1;whiteSpace=wrap;html=1;" vertex="1" parent="1">
          <mxGeometry x="575" y="1245" width="120" height="60" as="geometry" />
        </mxCell>
        <mxCell id="9PhvZ-ycNcugYNsBSybq-36" value="" style="shape=flexArrow;endArrow=classic;html=1;rounded=0;" edge="1" parent="1">
          <mxGeometry width="50" height="50" relative="1" as="geometry">
            <mxPoint x="600" y="890" as="sourcePoint" />
            <mxPoint x="250" y="1010" as="targetPoint" />
          </mxGeometry>
        </mxCell>
      </root>
    </mxGraphModel>
  </diagram>
</mxfile>
